<svg xmlns="http://www.w3.org/2000/svg" viewBox="0 0 144.38092 41.81195"><path d="M132.40319.00005V4.92037h-3v5.10781h3v8.03915c0,5.30993,3.02337,8.65564,8.64815,8.65564a14.64786,14.64786,0,0,0,3.32958-.3457V21.21816a10.88314,10.88314,0,0,1-1.91158.19482c-2.37746,0-4.13372-1.05749-4.13372-3.75V10.02812h5.663V4.92031h-5.69227L138.29887,0Zm-60.171,3.81-.00735.00735A12.20985,12.20985,0,0,0,59.99926,16.01152V41.812L79.4315,25.8904l1.05029-.86279a12.21735,12.21735,0,0,0-8.2499-21.218Zm-28.81463.56981c-4.77744,0-9.41313,4.5-9.41313,11.24986S38.64,26.74461,43.41757,26.74461a7.94988,7.94988,0,0,0,6.96673-3.80268l.61523,3.30026h5.16061V4.92H50.99953L50.3843,8.19824a8.03989,8.03989,0,0,0-6.96673-3.8188ZM11.975,4.38432q-.30606-.01309-.6123.00442A6.57742,6.57742,0,0,0,5.47554,7.88385H5.35542l-.6079-2.96344H0V26.24264H6.10537V13.4253c0-1.845.98984-3.46428,3.06731-3.46428s2.82709,1.11771,2.82709,3.42768V26.24279h6.12735V12.84871a3,3,0,0,1,3.10852-2.88732l.00424.00016c2.07748,0,2.82709,1.11771,2.82709,3.42768V26.24332H30.187V12.121c0-4.65745-2.175-7.73166-6.81-7.73166a6.9599,6.9599,0,0,0-6.082,3.61376A6.12743,6.12743,0,0,0,11.9748,4.385Zm84.09644.00442c-5.47493,0-8.64664,2.925-8.64664,6.81s3.13489,5.26389,6.50235,6.23137c2.78247.765,4.28169,1.19256,4.28169,2.49755,0,1.155-1.22135,1.84565-3.35883,1.84565a11.38482,11.38482,0,0,1-7.31241-2.65572v5.65568a13.8748,13.8748,0,0,0,7.5749,1.99513c5.70743,0,8.99988-2.69224,8.99988-6.88469,0-4.49994-3.7123-5.693-7.19225-6.54044-2.40747-.63-3.63716-1.095-3.63716-2.25,0-1.035,1.08-1.68748,3-1.68748a12.17982,12.17982,0,0,1,6.46424,1.88225V6.03813h.022a13.37966,13.37966,0,0,0-6.69719-1.64938Zm21.458,0c-5.89493,0-10.63637,4.5-10.63637,11.24986,0,6.46492,4.2826,11.11336,11.74485,11.11336a14.52741,14.52741,0,0,0,7.35787-1.897V19.81447a12.29232,12.29232,0,0,1-6.62249,2.1152c-3.21746,0-5.8581-1.57513-6.6606-4.62009h14.42983a12,12,0,0,0,.18017-2.0771c0-7.11741-4.4014-10.84411-9.79413-10.84411Zm-.0381,4.84419c2.295,0,4.0048,1.61968,4.0048,4.38715H112.6312a5.115,5.115,0,0,1,4.86031-4.38715Zm-45.26868.65325a6.14993,6.14993,0,1,1-6.15083,6.149v-.007A6.15743,6.15743,0,0,1,72.22261,9.88618ZM45.223,9.96089c2.90247,0,4.935,2.34657,4.935,5.66153s-2.1,5.65567-4.935,5.65567c-2.90246,0-5.04781-2.38572-5.04781-5.65567S42.32049,9.96089,45.223,9.96089Z" style="fill:#fff"/></svg>